<svg width="48" height="67" viewBox="0 0 48 67" fill="none" xmlns="http://www.w3.org/2000/svg">
<g clip-path="url(#clip0_217_78)">
<rect x="17" y="63" width="31" height="4" fill="#5D5D5D"/>
<path d="M15 36.0793C18.2968 35.4185 21.8156 34.6256 25.5562 33.7004C29.3602 32.7093 32.7839 31.7511 35.8271 30.826C38.9337 29.8348 41.0259 29.0088 42.1037 28.348L42.7695 26.0683C41.5648 26.3326 40.4236 26.5308 39.3458 26.663C38.268 26.7952 37.2219 26.8612 36.2075 26.8612C31.8329 26.8612 28.4726 25.7048 26.1268 23.3921C23.8444 21.0793 22.7032 18.1057 22.7032 14.4714C22.7032 10.5727 23.8761 7.20264 26.2219 4.36123C28.5677 1.45374 31.5158 0 35.0663 0C37.8559 0 40.2017 0.792952 42.1037 2.37885C44.0058 3.89868 45.464 5.98018 46.4784 8.62335C47.4928 11.2004 48 14.1079 48 17.3458C48 18.9978 47.8732 20.6828 47.6196 22.4009C47.4294 24.0529 47.1124 25.6388 46.6686 27.1586C46.098 29.0749 45.3689 30.7599 44.4813 32.2137C43.6571 33.6674 42.5158 35.022 41.0576 36.2775C38.5216 38.326 35.2248 40.0441 31.1671 41.4317C27.1095 42.7533 22.4813 43.9427 17.2824 45L15 36.0793ZM43.3401 20.022C43.3401 16.9824 42.5158 14.3392 40.8674 12.0925C39.219 9.77974 36.9366 8.62335 34.0202 8.62335C31.6744 8.62335 30.0259 9.31718 29.0749 10.7048C28.1873 12.0925 27.7435 13.1828 27.7435 13.9758C27.7435 15.1652 28.7262 16.2225 30.6916 17.1476C32.6571 18.0066 34.8761 18.7004 37.3487 19.2291C39.8213 19.7577 41.8184 20.022 43.3401 20.022Z" fill="white"/>
</g>
<defs>
<clipPath id="clip0_217_78">
<rect width="48" height="67" fill="white"/>
</clipPath>
</defs>
</svg>
