<svg width="48" height="67" viewBox="0 0 48 67" fill="none" xmlns="http://www.w3.org/2000/svg">
<rect x="17" y="63" width="31" height="4" fill="#5D5D5D"/>
<path d="M43.9137 6C46.6379 9.87421 48 14.1006 48 18.6792C48 22.1426 47.0821 25.1363 45.2462 27.6604C43.4695 30.1845 40.8046 31.3291 37.2513 31.0943C35.8299 30.9769 34.4679 30.6541 33.165 30.1258C31.9213 29.5975 30.6481 28.4822 29.3452 26.7799H32.9873C31.8621 28.7757 30.5 30.478 28.901 31.8868C27.3613 33.2956 25.3773 34 22.9492 34C19.2775 34 16.7014 32.5912 15.2208 29.7736C13.7403 26.956 13 23.5807 13 19.6478C13 18.1216 13.0888 16.566 13.2665 14.9811C13.4442 13.3962 13.681 11.8407 13.9772 10.3145L20.1954 11.195C19.9585 12.6625 19.6032 14.2767 19.1294 16.0377C18.7149 17.74 18.5076 19.2662 18.5076 20.6164C18.5076 22.26 18.9222 23.4046 19.7513 24.0503C20.5804 24.6373 21.5575 24.9602 22.6827 25.0189C24.1633 25.0776 25.4069 24.696 26.4137 23.8742C27.4797 22.9937 27.9535 21.7317 27.835 20.0881C27.6574 17.2117 27.4797 15.0692 27.302 13.6604C27.1836 12.2516 27.0651 10.8721 26.9467 9.52201L32.7208 8.99371C32.8393 10.2851 32.9281 11.6352 32.9873 13.044C33.0465 14.4528 33.1354 16.8008 33.2538 20.0881C33.3723 21.2621 34.2014 22.0545 35.7411 22.4654C37.2809 22.8176 38.8206 22.7589 40.3604 22.2893C41.9594 21.8197 42.7885 20.9099 42.8477 19.5597C42.9662 18.2096 42.522 16.5367 41.5152 14.5409C40.5677 12.5451 39.5313 10.6667 38.4061 8.90566L43.9137 6Z" fill="white"/>
</svg>
