<svg width="48" height="67" viewBox="0 0 48 67" fill="none" xmlns="http://www.w3.org/2000/svg">
<g clip-path="url(#clip0_217_65)">
<rect x="17" y="63" width="31" height="4" fill="#5D5D5D"/>
<path d="M30.1147 35.0557C25.0787 35.0557 20.9475 33.4819 17.7213 30.3344C14.5738 27.1081 13 22.977 13 17.9409C13 12.6688 14.7311 8.38031 18.1934 5.0754C21.6557 1.6918 25.7475 0 30.4688 0C35.3475 0 39.4786 1.77049 42.8622 5.31146C46.3245 8.85244 48.0557 13.0623 48.0557 17.9409C48.0557 22.8983 46.3245 26.9901 42.8622 30.2163C39.3999 33.4426 35.1508 35.0557 30.1147 35.0557ZM31.295 24.0786C36.8032 23.6065 39.5573 21.2459 39.5573 16.9967C39.5573 14.9508 38.6524 13.1016 36.8426 11.4492C35.1114 9.71801 32.9868 8.85244 30.4688 8.85244C27.9508 8.85244 25.7869 9.71801 23.977 11.4492C22.2459 13.1016 21.3803 14.9508 21.3803 16.9967C21.3803 18.9639 22.1672 20.7344 23.741 22.3081C25.3934 23.8032 27.9114 24.3934 31.295 24.0786Z" fill="white"/>
</g>
<defs>
<clipPath id="clip0_217_65">
<rect width="48" height="67" fill="white"/>
</clipPath>
</defs>
</svg>
